<?xml version="1.0" encoding="UTF-8"?>
<svg xmlns="http://www.w3.org/2000/svg" xmlns:xlink="http://www.w3.org/1999/xlink" viewBox="0 0 1111.18 678.18">
  <defs>
    <style>
      .cls-1 {
        fill: #000;
      }

      .cls-1, .cls-2, .cls-3, .cls-4, .cls-5, .cls-6 {
        stroke-width: 0px;
      }

      .cls-2 {
        fill: url(#linear-gradient-2);
        mix-blend-mode: screen;
      }

      .cls-2, .cls-4 {
        opacity: .9;
      }

      .cls-7 {
        isolation: isolate;
      }

      .cls-3 {
        fill: url(#linear-gradient-5);
      }

      .cls-8 {
        fill: ivory;
        stroke: #dbe4c9;
        stroke-miterlimit: 10;
        stroke-width: .5px;
      }

      .cls-4 {
        fill: url(#linear-gradient);
        mix-blend-mode: multiply;
      }

      .cls-9 {
        filter: url(#drop-shadow-2);
      }

      .cls-5 {
        fill: url(#linear-gradient-3);
      }

      .cls-6 {
        fill: url(#linear-gradient-4);
      }
    </style>
    <linearGradient id="linear-gradient" x1="453.41" y1="480.01" x2="675.4" y2="351.85" gradientUnits="userSpaceOnUse">
      <stop offset=".18" stop-color="#8aa624"/>
      <stop offset=".22" stop-color="#8ca728" stop-opacity=".97"/>
      <stop offset=".34" stop-color="rgba(160, 182, 80, .93)" stop-opacity=".93"/>
      <stop offset=".61" stop-color="rgba(210, 221, 184, .82)" stop-opacity=".82"/>
      <stop offset=".65" stop-color="#dbe4c9" stop-opacity=".8"/>
      <stop offset=".67" stop-color="rgba(223, 231, 206, .76)" stop-opacity=".76"/>
      <stop offset=".75" stop-color="rgba(241, 244, 224, .62)" stop-opacity=".62"/>
      <stop offset=".82" stop-color="rgba(251, 252, 236, .53)" stop-opacity=".53"/>
      <stop offset=".88" stop-color="ivory" stop-opacity=".5"/>
    </linearGradient>
    <linearGradient id="linear-gradient-2" x1="181.31" y1="516.02" x2="528.16" y2="516.02" gradientUnits="userSpaceOnUse">
      <stop offset=".1" stop-color="ivory" stop-opacity=".3"/>
      <stop offset=".31" stop-color="#dbe4c9" stop-opacity=".5"/>
      <stop offset=".35" stop-color="rgba(224, 217, 170, .58)" stop-opacity=".58"/>
      <stop offset=".45" stop-color="rgba(233, 201, 119, .71)" stop-opacity=".71"/>
      <stop offset=".54" stop-color="rgba(240, 187, 78, .81)" stop-opacity=".81"/>
      <stop offset=".64" stop-color="rgba(246, 177, 45, .9)" stop-opacity=".9"/>
      <stop offset=".74" stop-color="rgba(250, 169, 22, .95)" stop-opacity=".95"/>
      <stop offset=".86" stop-color="rgba(253, 165, 9, .99)" stop-opacity=".99"/>
      <stop offset="1" stop-color="#fea405"/>
    </linearGradient>
    <linearGradient id="linear-gradient-3" x1="631.2" y1="161.44" x2="631.24" y2="161.3" gradientUnits="userSpaceOnUse">
      <stop offset=".45" stop-color="#414913"/>
      <stop offset=".53" stop-color="rgba(68, 76, 22, 1)" stop-opacity="1"/>
      <stop offset=".59" stop-color="rgba(78, 86, 35, .98)" stop-opacity=".98"/>
      <stop offset=".65" stop-color="rgba(96, 104, 55, .96)" stop-opacity=".96"/>
      <stop offset=".7" stop-color="rgba(120, 129, 84, .93)" stop-opacity=".93"/>
      <stop offset=".75" stop-color="rgba(152, 161, 122, .89)" stop-opacity=".89"/>
      <stop offset=".8" stop-color="rgba(191, 199, 168, .84)" stop-opacity=".84"/>
      <stop offset=".83" stop-color="#dbe4c9" stop-opacity=".8"/>
      <stop offset=".94" stop-color="rgba(242, 245, 235, .8)" stop-opacity=".8"/>
      <stop offset="1" stop-color="#fff" stop-opacity=".8"/>
    </linearGradient>
    <linearGradient id="linear-gradient-4" x1="373.94" y1="580.39" x2="373.94" y2="580.38" xlink:href="#linear-gradient-3"/>
    <linearGradient id="linear-gradient-5" x1="424.13" y1="655.86" x2="580.25" y2="73.22" xlink:href="#linear-gradient-3"/>
    <filter id="drop-shadow-2" filterUnits="userSpaceOnUse">
      <feOffset dx="5" dy="5"/>
      <feGaussianBlur result="blur" stdDeviation="3"/>
      <feFlood flood-color="#90967d" flood-opacity=".65"/>
      <feComposite in2="blur" operator="in"/>
      <feComposite in="SourceGraphic"/>
    </filter>
  </defs>
  <g class="cls-7">
    <g id="OBJECTS">
      <g>
        <path class="cls-4" d="M424.8,343.13s75.14,61.38,75.14-29.48c0-31.18,44.24-53.12,69.26-41.48,68.52,31.85,50.84,89.04,73.04,97.22,53.13,19.6,57.23,19.25,61.23,33.18,4.23,14.74-49.78,134.47-87.31,144.09-37.53,9.63-109.17-6.86-117.92-14.71-8.75-7.85,11.95-119.02-32.51-108.29-91.37,22.05-40.93-80.52-40.93-80.52Z"/>
        <path class="cls-2" d="M230.27,547.07s55.56-9.05,79.75-22.1c24.19-13.05,40.06-37.16,63.87-43.21,23.81-6.05,36.11-13.54,44.13-16.44,8.02-2.91,17.68-19.16,27.03-19.54,9.34-.38,13.12,4.54,12.37,10.2-.76,5.67-12.05,19.28-8.67,24.19,3.38,4.91,14.43-12.7,29.12-14.85,14.7-2.15,38.9-28.7,48.53-11.46,9.63,17.24-22.4,60.73-48.53,71.11-26.12,10.38-51.82,48.93-85.08,50.45-33.26,1.51-103.94-6.65-125.86,4.99-21.92,11.64-78.24,3.33-85.04-1.96-6.8-5.29,48.38-31.37,48.38-31.37Z"/>
        <g>
          <path class="cls-5" d="M631.18,161.44s0-.01.01-.02c.08-.12.12-.2-.01.02Z"/>
          <path class="cls-6" d="M373.89,580.37c.1.04.14.05,0,0h0Z"/>
          <path class="cls-3" d="M694.94,397.94c-8.16-1.86-16.34-3.63-24.43-5.76-17.78-4.61-35.47-9.6-53.42-13.49-10.65-2.43-21.36-4.53-32.03-6.85-13.19-3.02-26.35-6.16-39.36-9.88-16.69-4.68-33.35-9.5-50.23-13.48-7.15-1.63-14.27-3.35-21.37-5.18-5-1.45-9.51-2.41-13.71-4.81-1.6-1.21-1.5-2.65.75-5.89,1.55-2.24,4.92-6.03,7.33-8.65,14.2-15.33,28.8-28.94,46.66-39.75,8.56-5.08,16.49-9,26.06-11.83,10.87-3.12,21.93-4.34,32.97-2.77.47,4.78,2.41,9.38,4.62,13.63,2.21,4.01,5,7.67,7.55,11.46,7.17,10.2,14.52,20.28,21.91,30.32,4.49,6.29,9.23,12.38,13.86,18.56,4.73,6.31,9.41,12.71,15.09,18.21,3.02,2.88,6.27,5.67,10.15,7.31,2.13.87,4.57,1.26,6.83.74,2.51-.78,3.57-3.55,3.82-5.95.26-2.65-.12-5.28-.74-7.85-.84-3.65-2.12-7.18-3.54-10.64-4.37-10.7-10.39-20.63-16.62-30.33-4.09-6.43-8.69-12.52-13.73-18.24-3.52-3.99-7.14-7.93-11.16-11.43-9.49-7.62-20.24-14.27-32.3-16.71-1.38-.31-2.76-.57-4.14-.8-.02-.6,0-1.17.04-1.69.71-15.21-2.09-31.69-12.72-43.32-3.46-3.91-7.54-7.19-11.6-10.2-7.16-5.27-15.48-10.57-14.71-20.04.58.1,1.16.19,1.74.28,15.11,1.93,30.51,3.2,45.72,3.53,11.83.19,74.57.52,47.54-22.18-19.22-14.89-59.13-16.92-81.17-7.56-7.34,3.05-13.46,7.78-16.88,13.91-4.08-1.58-8.1-3.4-11.48-5.73-.74-.53-1.27-1.07-1.53-1.42-.17-.86-.11-1.61.48-2.63.64-1.22,1.93-2.76,3.5-4.26,6.77-6.48,15.85-11.92,24-17.05,12.87-8.24,25.51-18.27,32.58-32.16,7.09-13.54,7.83-30.92-.5-44.01,0,0-.57.4-.57.4,10.46,17.5,3.57,40.34-10.63,53.56-10.66,10.23-24.19,17.02-37.69,23.07-4.85,2.16-9.64,4.06-14.28,7-3.88,2.41-8.34,6.55-9.62,11.75-1.83,6.85,1.26,13,6.98,16.47,5.03,3.11,10.33,4.77,15.81,5.93-.05,2.57.31,5.27,1.13,8.11,2.75,8.03,10.41,12.37,16.93,16.78,4.13,2.75,8.06,5.62,11.43,9.08,10.62,10.54,13.78,25.79,13.84,40.32-.05.61-.06,1.21-.06,1.81-11.21-1.53-22.52-.24-33.46,2.89-7.97,2.28-15.52,5.89-22.76,9.91-10.93,6.22-21.01,13.87-30.43,22.18-6.7,6.04-13.02,12.49-19.22,19.03-2.33,2.53-4.68,5.06-6.82,7.75-1.7,2.23-3.8,4.57-3.89,7.52.28,2.29,2.37,3.5,4.31,4.3,2.14.98,4.41,1.64,6.66,2.34,12.6,3.71,25.53,6.19,38.23,9.52,10.51,2.85,21.02,5.68,31.49,8.68,11.98,3.51,24.06,6.71,36.21,9.57,17.09,4.17,34.41,7.26,51.52,11.36,17.3,3.97,34.32,9.04,51.58,13.17,7.93,1.92,15.94,3.47,23.87,5.39,10.59,2.71,9.01,4.31,9.14,4.35,0,0,0,0,0,.01-.68,2.73-1.28,5.47-1.94,8.2-2.18,9.32-5.23,18.02-8.58,26.25-6.17,15.68-13.86,30.75-22.85,45-5.02,7.85-10.01,14.74-16.31,22.09-4.58,5.24-9.56,10.12-14.67,14.83-13.75,12.82-30.12,23.07-48.52,28.52-6.37,1.78-11.62,2.8-18.14,3.19-4.35.09-7.61-.17-11.62-.68-7.32-.88-14.39-3.1-21.52-4.91-10.05-2.6-20.08-5.3-30.21-7.59-7.62-1.74-15.26-3.4-22.83-5.33-3.68-1.07-7.92-2.2-10.79-3.83.52-.58.95-1.21,1.28-1.89,5.26.07,9.95.66,15.41,1.27,11.86,1.6,23.58,4.13,35.19,7.07-.16.94.06,1.91.84,2.62,1.83,1.63,4.25,2.44,6.46,3.43,3.65,1.46,7.43,2.59,11.23,3.59,4.64,1.12,9.41,1.65,14.18,1.72,5.81.09,6.53-1.71,4.3-2.42-11.53-3.43-23.09-6.83-34.74-9.83.15-.17.33-.35.56-.58.99-.92,2.29-1.4,3.55-1.81,10.87-3.47,22.89-2.04,34.22-4.54,7.67-1.73,15.22-4.01,22.62-6.69,5.94-2.31,11.7-5.05,17.39-7.93,5.91-3.12,11.76-6.42,17.11-10.44,12.95-9.65,23.12-22.36,32.3-35.53,6.84-9.53,13.05-19.64,17.06-30.71,4.06-10.32,4.66-17.62-3.16-26.39-2.75-2.93-6.29-4.99-9.71-7.06-7.57-4.29-15.93-6.83-24.24-9.26-12.24-3.71-24.7-6.62-37.16-9.48-8.1-1.93-16.06-4.34-24.05-6.68-16.71-4.59-33.36-9.4-50.18-13.55-13.76-3.36-27.38-7.28-41.09-10.87-7.94-2.14-15.75-4.75-23.69-6.89-8.37-2.23-16.69-4.66-25.1-6.77-3.56-.89-7.16-1.66-10.79-2.21-2.42-.3-4.89-.77-7.33-.37-4.08.83-6.55,7.62-8.36,10.96-3.32,6.85-5.55,14.14-7.34,21.52-1.38,5.63-2.73,11.26-3.9,16.93-3.08,15.79-4.68,32.14-2.18,48.12,2.09,13.33,17.03,26.5,29.12-5.35,2.4-6.31,3.96-12.95,4.71-19.67,1.88.85,3.83,1.55,5.9,1.81,8.66,1.19,17.32-.92,25.83-2.36,11.26-2.11,22.13-4.07,33.06-5.28,4.87-.54,9.75-1.07,14.64-1.21,6.54-.1,14.82.55,20.41,1.23,12.52,1.83,24.44,4.66,34.9,11.27,7.46,4.95,14.31,11.47,18.74,19.57,4.07,8.29,6.11,18.02,5.38,27.8-.62,6.21-2.94,13.76-6.07,19.57-2.92,5.33-5.93,9.02-10.42,13.17-8.45,7.83-17.67,14.07-29.04,16.7-5.86,1.37-12.01,1.45-18.01.09-8.37-1.68-14.97-4.67-22.42-8.84-1.96-1.04-3.84-2.17-5.64-3.37,2.45-2.87,4.97-5.67,7.58-8.38,2.22-2.31,4.76-4.48,6.45-7.24,1.72-2.8,2.43-6.08,4.15-8.9.91-1.49,1.96-2.87,3.09-4.19,1.47-1.34,3.11-2.51,4.39-4.05.47-.56.9-1.2,1.25-1.88.01-.02.02-.04.03-.06.95-1.87,1.31-4.05.23-5.95-.11-.2-.28-.3-.46-.34-1.53-1.79-3.68-2.96-6.01-3.28-5.17-.72-9.14,3.31-12.67,6.47-2.13,1.91-4.22,3.87-6.27,5.87-1.04,1.02-2.07,2.05-3.09,3.09-.46.47-.92.95-1.38,1.42,4.71-7.04,10.83-13.05,17.97-17.63.46-.04.89-.62.52-1.12-2.19-3.03-6.36-3.78-9.8-2.8-4.2,1.19-7.56,4.4-10.61,7.37-4.49,4.37-8.5,9.18-12.69,13.83-.01-.04-.02-.08-.03-.12,0-.21-.03-.41-.04-.62-.07-1.76-.04-3.53.15-5.28,0,.08-.01.12-.02.15,0-.04.01-.12.02-.2.03-.16.1-.6.06-.72-.02-.23-.15-.46-.34-.58-.1-.09-.21-.13-.34-.16,0-.52-.01-1.04-.1-1.55-.33-1.91-1.56-3.48-3.56-3.72-1.84-.22-3.88.32-5.55,1.06-3.53,1.56-6.31,4.58-7.64,8.19-1.54,4.19-1.14,8.7.51,12.78.63,1.57,1.25,3.08,1.56,4.68-2.61,1.84-5.32,3.53-8.13,5.09-3.78,2.09-7.69,3.94-11.66,5.65-.19-.2-.38-.41-.55-.62-3.57-4.2-5.24-9.57-7.58-14.47-.32-.66-.64-1.32-.99-1.96-.25-.46-.49-.99-.97-1.25-.63-.34-1.36-.14-2.06.21-2.3-.76-4.78.2-6.38,1.95-1.87,2.06-2.78,5.06-3.02,7.78-.25,2.82.52,5.32,2.02,7.68,1.38,2.19,3.19,4.24,3.72,6.84,0,0,0,0,0,0-1.89.69-3.77,1.41-5.67,2.08-4.04,1.43-8.16,2.69-12.45,2.98-.08-.12-.18-.22-.32-.27-2.62-.95-4.49-3.24-6.65-4.9-2.04-1.57-4.35-3.03-5.59-5.36.97-2.04,1.95-4.07,2.92-6.1,1.01-2.11,1.92-4.38,3.48-6.15,1.54-1.76,3.74-2.71,5.82-3.65,2.22-1,4.46-1.96,6.68-2.94,7.37-3.27,14.81-6.92,20.58-12.69,1.33-1.33,2.57-2.75,3.66-4.28,1.12-1.56,2.23-3.27,2.69-5.16.81-3.33-.97-6.7-3.78-8.5-3.39-2.16-7.7-1.87-11.36-.64-4.09,1.38-7.86,3.79-11.57,5.96-7.58,4.42-14.94,9.2-22.06,14.33-1.81.26-3.62.54-5.43.86-14.62,2.62-28.9,7.44-42.05,14.36-6.22,3.28-12.19,7.05-17.7,11.42-2.72,2.16-5.33,4.47-7.8,6.92-2.54,2.53-4.83,5.3-7.33,7.88-2.55,2.63-5.37,4.8-8.68,6.4-3.36,1.62-6.92,2.82-10.41,4.11-7.28,2.68-14.57,5.34-21.92,7.82-14.77,4.98-29.85,9.26-45.31,11.46-.88.12-1.75.24-2.63.35,0,.45,0,.91.01,1.36,2.65-.32,5.29-.7,7.93-1.16,15.26-2.62,30.12-7.12,44.73-12.19,7.36-2.55,14.68-5.24,21.99-7.95,3.37-1.25,6.73-2.59,9.76-4.55,2.99-1.94,5.45-4.55,7.82-7.18,4.77-5.31,9.85-10.17,15.61-14.41,5.76-4.24,11.95-7.86,18.38-10.98,13.66-6.63,28.34-11.06,43.36-13.17.15-.02.25-.08.34-.16.04-.02.07-.02.11-.05,7.75-5.58,15.79-10.77,24.09-15.5,3.49-1.99,7.1-4.26,11.07-5.15,3.72-.83,7.99-.27,10.39,2.97,1.03,1.4,1.53,3.17,1.16,4.89-.4,1.88-1.58,3.58-2.69,5.1-2.17,2.98-4.88,5.52-7.83,7.72-6.52,4.84-14.13,7.84-21.49,11.12-1.73.77-3.48,1.51-5.06,2.56-1.61,1.08-2.82,2.54-3.77,4.23-1.67,2.97-3.07,6.12-4.51,9.22-1.33-3.75-4.16-6.84-7.84-8.45-.47-.21-1.01.26-.91.75.87,4.6,4.59,7.74,8.07,10.5.22.17.47.15.68.03,1.37,2.1,3.45,3.54,5.44,5.06,2.19,1.68,4.09,3.89,6.66,4.99,0,0,0,0,0,0-.03.69.81.92,1.18.55.01,0,.02,0,.03,0,4.77-.27,9.34-1.76,13.81-3.37,1.58-.57,3.17-1.14,4.75-1.72-.45,7.47-1.64,14.87-3.58,22.09-.1-.71.1-1.69.05-2.18-.1-.89-.56-1.93-1.53-2.12-1.19-.23-2.32,1.03-3.29,1.56-1.27.69-2.62,1.22-3.95,1.81-1.12.49-2.17,1.06-3.16,1.71-.05-.01-.1-.03-.16-.04-4.79-.09-9.45.7-14,2.16-4.26,1.37-8.43,3.15-12.86,3.92-4.08.72-8.04.25-11.89-1.27-3.86-1.52-7.38-3.77-11.01-5.75-7.4-4.06-15.49-6.76-23.86-7.86-8.18-1.07-16.53-.54-24.29,2.4-6.84,2.6-12.98,6.87-17.82,12.36-.58.66.54,1.44,1.12.79,5.4-6.12,12.57-10.67,20.4-12.96,8.06-2.35,16.64-2.14,24.81-.5,4.23.85,8.38,2.12,12.37,3.78,3.85,1.6,7.44,3.67,11.07,5.71,3.38,1.9,6.87,3.7,10.68,4.55,3.76.84,7.57.49,11.28-.47,3.77-.98,7.39-2.46,11.1-3.62,3.68-1.15,7.47-1.8,11.31-1.87-.56.5-1.1,1.04-1.59,1.64-1.71,2.09-2.8,4.61-3.23,7.27-.09.58.69.99,1.12.6,2.91-2.68,5.09-6.04,6.35-9.8.96-.62,1.99-1.15,3.06-1.62,1.15-.5,2.33-.98,3.44-1.56.55-.29,1.08-.6,1.59-.95.44-.3,1.08-1.03,1.42-.29.38.83.03,1.85.12,2.73.1.88.52,1.71,1.41,1.98.33.1.78-.03.88-.41,2.23-7.93,3.57-16.08,4.02-24.3,2.09-.77,4.18-1.55,6.27-2.35,2.49-.96,4.97-1.97,7.43-3.02,1.09,1.2,2.09,2.45,2.26,4.16.13,1.29-.04,2.61-.1,3.89-.06,1.46-.1,2.92-.11,4.38-.02,2.87.06,5.74.19,8.61.13,2.92.31,5.85.5,8.77.15,2.29.21,4.65,1.62,6.57.3.42,1.02.28,1.17-.2,1.23-3.76,1.12-7.7,1.01-11.61-.03-1.03-.07-2.07-.05-3.11.01-.56.07-.96.58-1.29.38-.25.82-.42,1.23-.61,1.41-.65,2.88-1.18,4.36-1.65-.05.26-.09.53-.12.8-.16,1.88.54,3.77,2.33,4.6.32.15.79-.07.88-.41.59-2.17.09-4.47-1.4-6.15.15-.52.31-1,.44-1.41.79-2.58,1.58-5.15,2.37-7.73.77-2.52,1.54-5.04,2.32-7.57.72-2.35,1.5-4.7,1.94-7.12.28-1.54.4-3.12.24-4.68,3.78-2.72,7.34-5.75,10.62-9.11.55-.56,1.08-1.14,1.62-1.71.85,5.5,3.04,10.45,6.19,14.8-.21,1.19-.49,2.37-.74,3.52-2,9-5.38,17.69-6.27,26.92-.01.13.01.23.05.33-.03.4.25.84.76.76,3.2-.52,4.87-3.75,6.53-6.17,2.14-3.11,4.37-6.16,6.68-9.14,1.43-1.84,2.9-3.65,4.4-5.43.1.07.19.14.29.2,14.2,9.03,31.47,16.86,48.54,12.32,10.17-2.52,19.21-8.26,26.98-15.17,7.09-6.02,12.75-13.52,15.85-22.34,1.86-5.01,3.19-10.28,3.36-15.63.3-9.27-1.72-18.69-5.89-26.98-4.53-8.16-11.49-14.78-19.19-19.96-16.04-10.16-37.92-12.87-56.62-12.85-14.65.73-29.16,3.15-43.57,5.82-7.16,1.28-13.57,2.7-20.49,3.31-5.66.49-10.43.16-15.07-2.04.52-5.69.47-11.44-.15-17.1-.64-5.17-1.8-15.57-7.8-16.95-1.74-.29-3.27,1.09-4.24,2.39-2.47,3.41-2.35,7.86-2.08,11.87.31,3.79,1.52,7.43,3.26,10.8,1.05,2.09,2.13,4.19,3.7,5.95,1.51,1.79,3.57,3,5.66,3.99-.45,4.31-1.23,8.59-2.34,12.71-8.28,30.79-26.47,33.69-28.61,6.29-1.1-14.13.34-26.75,2.98-40.55,1.15-5.75,2.48-11.47,3.84-17.18,1.95-8,3.84-14.55,7.39-21.82,4.57-9.35,6.08-9.28,7.27-9.36,1.13-.07,2.27-.02,3.4.08,3.12.29,6.2.84,9.26,1.49,8.56,1.87,16.96,4.37,25.43,6.57,8.53,2.18,16.89,4.92,25.36,7.3,13.02,3.44,25.99,7.08,39.04,10.39,17.44,4.2,34.68,9.15,51.97,13.93,7.85,2.26,15.65,4.72,23.58,6.7,13.29,3.17,26.65,6.15,39.73,10.15,8.46,2.49,15.81,4.7,23.58,9.03,3.71,2.3,6.75,3.98,9.59,6.95,1.5,1.48,3.45,4.6,4.22,6.15.61,1.21,1.07,3.65,1.13,4,.98,4.16-.95,9.9-2.2,13.35-4.93,14.15-13.75,26.88-22.21,38.32-7.93,11.01-17.19,21.02-27.69,28.79-6.95,4.92-14.47,9-22.15,12.65-5.23,2.44-12.68,5.72-19.01,7.52-5.8,1.81-11.64,3.55-17.63,4.6-4.95.74-12.23,1.24-18,1.64-4.94.46-14.38,1.35-17.88,4.94-.27.24-.51.53-.7.84-6.89-1.75-13.82-3.36-20.79-4.76-6.49-1.37-13.05-2.4-19.65-3.1-3.36-.34-6.74-.74-10.12-.84.12-.7.15-1.45.02-2.25-.12-.72-1.04-.72-1.32-.13-.4.84-.89,1.64-1.45,2.37-.41.01-.82.02-1.23.04-.89.02-1.79.65-1.8,1.6-.04.42.06.79.24,1.12-.24.18-.48.35-.73.51-2.4,1.54-5.18,2.52-7.77,3.67-9.47,4.23-18.74,8.87-28.01,13.51-4.69,2.35-9.37,4.69-14.09,6.98-2.36,1.14-4.72,2.27-7.09,3.38-1.72.8-3.49,1.72-5.36,2.12,1.76-1.8,3.82-3.29,6-4.55,2.43-1.41,4.97-2.61,7.49-3.84,2.97-1.45,5.94-2.9,8.91-4.34,2.97-1.45,5.94-2.9,8.91-4.34,1.49-.72,2.97-1.45,4.46-2.17,1.07-.52,2.1-1.01,2.62-2.14.37-.8-.92-1.27-1.29-.47-.33.73-1.22,1.04-1.89,1.37-.82.4-1.64.8-2.46,1.2-1.64.8-3.28,1.6-4.92,2.4-5.81,2.83-11.64,5.65-17.44,8.5-4.67,2.29-9.35,4.82-12.7,8.9-.31.37-.01,1.09.49,1.08,2.79-.06,5.26-1.29,7.74-2.44,2.77-1.29,5.53-2.61,8.27-3.95,9.71-4.74,19.32-9.69,29.05-14.39,4.91-2.37,9.86-4.67,14.87-6.85,2.02-.88,4.05-1.79,5.83-3.1.12.1.25.2.38.29-.38.3-.77.58-1.18.83-2.49,1.54-5.29,2.64-7.95,3.85-9.61,4.41-19.34,8.74-28.07,14.78-4.37,3.02-8.34,6.64-13.26,8.77-2.56,1.11-5.24,1.97-7.87,2.9-2.73.96-5.46,1.92-8.19,2.88-.38.13-.46.46-.37.75-4.83,2.44-10.45,2.46-15.78,2.27-12.38-.45-24.75-.63-37.14-.21-6.02.2-12.07.42-18.07,1.01-5.06.5-10.15,1.5-14.66,3.91-6.51,2.75-12.04,7.89-19.23,8.83-4.67.61-9.4-.25-14.08.25-4.6.48-9.07,1.84-13.42,3.36-9.46,3.32-18.83,6.91-28.24,10.38-6.29,2.32-12.59,4.64-18.88,6.95,0,.46,0,.92.01,1.38,0,.02,0,.05,0,.07,7.55-2.78,15.09-5.56,22.64-8.34l14.13-5.2c4.62-1.7,9.21-3.5,13.9-5,4.48-1.43,9.11-2.46,13.84-2.44,4.46.02,8.95.58,13.31-.69,5.59-1.63,10.22-5.45,15.45-7.85.12.02.26.01.4-.07.35-.2.71-.37,1.07-.55,1.2-.47,2.43-.86,3.72-1.12.36-.07.53-.35.54-.64,3.97-1.28,8.18-1.8,12.34-2.11,12.46-.93,25-1.18,37.5-1,5.94.08,11.88.47,17.82.51,5.05.03,10.28-.45,14.67-3.16.2-.12.3-.3.33-.48,2.84-1,5.68-2,8.52-3,2.99-1.05,6.03-2.03,8.81-3.57,4.75-2.61,8.81-6.33,13.35-9.27,4.66-3.02,9.6-5.6,14.6-8.01,4.98-2.4,10.04-4.64,15.05-6.98,1.81-.85,3.87-1.89,5.54-3.25,1.25.77,2.58,1.41,3.98,1.88,9.93,3.55,20.38,5.35,30.62,7.8,10.53,2.38,20.94,5.23,31.38,7.95,6.71,1.74,13.37,3.8,20.27,4.64,3.9.5,7.82.84,11.76.76,6.47-.27,12.86-1.49,19.09-3.22,11.28-3.34,21.98-8.53,31.81-14.97,6.02-4,11.58-8.62,16.98-13.41,5.3-4.84,10.47-9.83,15.22-15.21,4.81-5.56,9.26-11.44,13.37-17.52,9.82-14.65,18.1-30.34,24.75-46.67,3.08-7.56,6.04-15.19,8.25-23.06,1.54-5.7,2.97-11.48,4.06-17.26.04-2.35-9.37-4.44-17.76-6.35ZM579.93,270.68c11.36,2.36,21.7,8.77,30.65,15.88,4.12,3.51,7.78,7.52,11.37,11.56,5.16,5.8,9.68,11.92,14.11,18.87,6.7,10.53,12.76,20.62,17.02,31.96,1.93,5.44,3.88,11.04,2.93,15.85-.42,1.72-1.29,2.95-2.04,3.17-1.81.66-4.45.14-6.25-.66-5.32-2.44-9.54-6.9-13.79-11.51-3.77-4.22-7.68-9.64-11.5-14.66-7.41-9.64-14.55-19.48-21.76-29.27-4.83-6.69-9.69-13.36-14.4-20.13-3.4-4.81-6.61-9.46-8.49-14.58-.94-2.3-1.59-4.93-1.87-7.29,1.34.23,2.68.49,4.02.8ZM580.98,164.43c14.66-.95,30.1.73,43.32,7.49,4.09,2.24,11.58,7.2,11.9,12.14-.45,3.38-4.38,4.61-7.4,5.66-4.64,1.41-9.6,1.98-14.53,2.36-9.91.62-19.9.29-29.8-.56-14.77-1.29-29.64-3.47-43.67-8.32-.39-.14-.79-.28-1.18-.42,7.35-12.94,27.49-17.22,41.36-18.34ZM397.51,491.38c2.7,1.58,4.77,4.13,5.77,7.1-2.39-1.96-4.74-4.2-5.77-7.1ZM416.38,537.04c.55-1.55,1.35-3,2.41-4.27.27-.33.58-.61.88-.9-.85,1.87-1.95,3.61-3.29,5.17ZM438.12,483.14c.64-.36,1.27-.73,1.91-1.08.07-.02.12-.06.18-.1.38-.21.77-.31,1.11.03.17.17.28.51.39.73.55,1.06,1.05,2.14,1.54,3.23.61,1.37,1.2,2.75,1.81,4.12-.11.07-.22.15-.28.29-.56,1.14-1.89,1.73-3.12,1.68-1.38-.06-2.63-.89-3.53-1.9-.98-1.1-1.61-2.44-2.15-3.8-.13-.33-.25-.66-.38-.99-.21-.55-.05-.75.45-1.03.69-.39,1.39-.79,2.08-1.18ZM441.71,502.79c-1.3.49-2.61.96-3.91,1.43-.11-.29-.41-.44-.69-.43-1.26-4.08-5.11-6.95-5.5-11.38-.23-2.58.46-5.52,1.81-7.74.97-1.58,2.61-2.88,4.43-2.95-.74.42-1.48.84-2.22,1.26-.5.28-1.13.54-1.43,1.06-.58.97.37,2.52.75,3.42,1.04,2.45,2.7,4.96,5.41,5.73,1.99.57,4.15-.09,5.33-1.75.16.35.31.7.48,1.05,1.01,2.09,2.17,4.14,3.62,5.96.23.28.47.56.71.83-2.9,1.23-5.83,2.4-8.78,3.52ZM524.51,472.18c-.54.49-1.05,1.01-1.52,1.57-.15-2.15.38-4.32,1.62-6.12.69-1.01,1.68-2.08,2.95-2.29.97-.16,2.01.33,2.28,1.27-1.83,1.79-3.66,3.61-5.33,5.56ZM500.26,461.52c2.76-2.7,5.74-5.64,9.41-7.03,2.89-1.09,6.5-.87,8.7,1.42-7.81,5.05-14.45,11.84-19.31,19.77-.17.28-.18.77.17.95,1.17.62,2.14-.09,2.96-.94,1.09-1.13,2.18-2.25,3.29-3.36,1.99-1.98,4.02-3.93,6.09-5.82,1.94-1.78,3.88-3.6,5.98-5.2,1.96-1.5,4.21-2.64,6.75-2.44,2.29.19,4.4,1.31,5.83,3.11.06.07.12.12.19.16.42.95.44,1.94.2,2.9-.32-.33-.7-.61-1.09-.79-2.54-1.16-4.99,1-6.23,3.05-1.51,2.48-1.98,5.49-1.31,8.31,0,0,0,0,0,.01-.52.79-1.03,1.6-1.47,2.44-1.12,2.16-1.74,4.54-2.89,6.68-1.18,2.2-2.98,3.96-4.72,5.72-3.37,3.41-6.61,6.94-9.72,10.58-3.93-2.77-7.34-5.96-10.02-9.6.04-.34.09-.68.13-1.01.23-2.29-.36-4.24-1.47-6.23-1.09-1.94-2.24-3.83-3.19-5.85-.43-.91-.82-1.85-1.16-2.8,4.27-4.71,8.33-9.61,12.87-14.06ZM484.31,466.29c.11-.18.2-.38.29-.57.05.58.05,1.15-.02,1.64-.17,1.24-1.19,1.91-2.21,2.45-.03-.15-.07-.3-.1-.44-.07-.37-.16-.78.07-1.11.17-.25.46-.39.69-.57.5-.38.94-.86,1.27-1.4ZM484.89,469.65c0,.51.03,1.02.08,1.52-.02.61-.03,1.22-.01,1.83,0,.55.05,1.09.08,1.63-1.12-.76-1.84-2.1-2.3-3.47.8-.42,1.56-.89,2.15-1.51ZM466.09,521.86c-.74-.74-.83-1.85-.67-3,.52.91.76,1.95.67,3ZM470.47,497.24c-1.48,4.92-3.01,9.83-4.51,14.75-.39,1.29-.79,2.58-1.18,3.86-.09.28-.17.57-.25.85-1.87.54-3.69,1.19-5.46,2.02-.75.35-1.62.7-2.1,1.41-.52.77-.38,1.81-.37,2.69.05,3.85.4,7.79-.43,11.56-.31-.93-.43-1.93-.5-2.9-.14-1.86-.24-3.72-.35-5.58-.22-3.82-.4-7.64-.42-11.46,0-1.63.01-3.26.07-4.89.05-1.51.22-3.03.17-4.54-.04-1.37-.38-2.62-1.15-3.77-.35-.52-.76-1-1.18-1.46,4.26-1.85,8.46-3.86,12.5-6.16,2.24-1.28,4.41-2.65,6.51-4.11.02.28.02.56.02.85-.06,2.36-.68,4.65-1.35,6.89ZM482.66,478.63c-3.04,3.1-6.32,5.9-9.8,8.45-.01-.05-.01-.09-.03-.14-.53-2.11-1.6-4.02-2.22-6.1-1.21-3.99-.88-8.6,1.35-12.18,1.89-3.04,5.03-5.33,8.59-5.91,1.05-.17,2.33-.32,3.24.35.09,1.47-.62,2.79-1.79,3.65-.6.44-1.07.93-1.16,1.71-.09.73.14,1.48.33,2.18.59,2.19,1.73,4.57,3.8,5.55-.76.82-1.52,1.65-2.31,2.45ZM487.6,479.56c.65,1.31,1.35,2.59,2.08,3.84,1.08,1.85,2.25,3.72,2.22,5.95,0,.13-.02.26-.03.39-1.99-3.08-3.45-6.47-4.27-10.17ZM493.76,512.89c-1.42,1.95-2.79,3.93-4.15,5.93-.95,1.4-2.03,3.02-3.64,3.67.6-5.45,2.03-10.75,3.51-16.01,1.14-4.07,2.43-8.23,3.2-12.44,2.56,3.2,5.67,6.04,9.15,8.52-2.81,3.35-5.5,6.8-8.08,10.33ZM427.79,400.68c-1.95-3.72-3.19-7.59-3.33-11.78-.04-2.58-.15-4.63.51-6.75.6-1.89,1.66-4.02,3.72-4.59.06,0,.11,0,.17,0,.14.02.32.06.4.08.61.21.49.11,1.12.54.11.09.29.24.35.3.59.58,1.11,1.23,1.54,1.93,1.73,2.9,2.3,6.32,2.83,9.61.94,6.18,1.13,12.75.57,19.28-3.96-1.91-5.89-4.49-7.88-8.61ZM535.98,538.23c4.79,1.23,9.56,2.52,14.32,3.85,5.35,1.54,10.71,3.07,16.07,4.55.82.21,1.64.47,2.46.73-.12.02-.23.04-.31.04-1.49.21-3,.06-4.5,0-2.22-.16-5.95-.53-8.85-1.16-6.06-1.44-11.19-2.99-16.49-5.6-2.01-.95-2.55-1.66-2.72-2.1,0-.11,0-.22.01-.31ZM481.89,529.48c.09,0,.17,0,.26,0-.24.4-.53.78-.84,1.14-.1-.07-.19-.15-.29-.23.3-.29.59-.59.87-.91Z"/>
        </g>
        <g class="cls-9">
          <path class="cls-8" d="M128.46,597.03c-.93,0-2.46-.08-4.39-.17-1.09-.05-2.29-.12-3.53-.17-18.56-.8-31.36-11.68-34.25-29.1-2.87-17.33,4.3-37.96,19.65-56.62,5.3-6.42,5.53-7.73,5.52-9.85-.09-18.79,10.29-94.49,17.35-126.58,6.73-31.15,12.07-46.33,24.21-48.34.8-.13,1.64-.2,2.5-.2,2.52,0,5.02.59,7.13,1.17,2.44.69,8.82,2.5,9.9,9.05.74,4.44-.79,10.06-4.47,20.97-12.04,35.64-20.89,71.82-27.85,113.87-.67,4.07-1.25,7.65-1.74,10.64,23.54-15.78,37.21-22.91,61.18-32.11,3.57-1.46,6.47-2.64,8.83-3.6,4.22-1.72,7.15-2.91,8.57-3.55.02-.09.05-.19.07-.29,1.3-5.12,4.33-17.11,6-35.6,1.28-15.17.93-28.9-1.03-40.76-5.77-34.88-24.69-54.08-53.26-54.08-3.59,0-7.34.32-11.14.95-40.09,6.64-84.55,45.11-118.92,102.92-9.09,15.18-10.49,17.51-18.58,19.15l-.37.06c-1.09.18-2.13.27-3.09.27-5.48,0-9.4-3.13-10.23-8.18-2.21-13.33,18.89-40.59,28.06-51.69,19.01-23.01,41.64-43.88,60.53-55.82,21.84-13.77,42.49-22.34,61.37-25.47,5.38-.89,10.65-1.34,15.69-1.34,37.41,0,62.9,24.41,69.95,66.97,3.24,19.58,2.64,42.14-1.78,67.07l-1.42,8.7c.52-.17,3.05-.98,3.05-.98,6.45-2.04,14.36-3.9,21.73-5.12,1.08-.18,2.08-.33,3-.47,3.15-8.78,8.88-11.58,13.37-12.32l2.6-.43.43.13c.89-.2,1.88-.87,3.04-2.05,3.97-4,8.13-6.31,12.73-7.07.77-.13,1.73-.29,2.82-.29.25,0,.5,0,.76.03,5.04.2,11.1,2.58,18.53,7.28,7.28,4.29,13.47,6.38,18.91,6.38.45,0,.91-.01,1.35-.04.61-.09,1.16-.11,1.61-.12.22,0,.52-.02.62-.04,3.24-.54,5.64-2.03,7.31-4.57,1.51-5.27,5.36-8.65,10.92-9.57.96-.16,1.89-.24,2.76-.24,4.61,0,8.11,2.25,9.82,6.15,9.19-16.75,12.67-19.33,15.39-20.32l.12-.04.12-.04c3.18-.97,5.08-1.51,5.64-1.61.61-.1,1.2-.15,1.78-.15,6.49,0,10.66,5.34,12.41,15.88.47,2.83.79,6.15.97,9.88.22,5.51.75,10.7,1.69,16.35,1.86,11.26,4.45,13.79,5.21,13.79.04,0,.08,0,.12,0l.29-.05c.77-.13,7.99-2.22,18.84-35.25,2.49-8.06,4.4-12.06,8.47-12.73.34-.06.68-.08,1.02-.08,1,0,4.36.32,5.94,4.47l.1.26c.18.39.41.96.53,1.69.56,3.36-.35,8.09-2.93,15.32-2.73,7.21-6.1,14.52-10.04,21.83-4.82,8.53-8.32,13.35-11.77,16.23l-.18.14c-3.64,2.77-7.51,4.56-11.17,5.17-.9.15-1.81.23-2.68.23-3.94,0-9.6-1.56-14.17-8.99l-.06-.1c-2.68-4.59-4.62-10.7-5.94-18.67-.92-5.56-1.52-11.9-1.81-19.22-1.98,3.01-4.22,6.85-6.75,11.56-4.39,8.17-8.39,16.98-11.88,26.19-5.15,13.41-8.7,18.45-13.58,19.25-.36.06-.74.09-1.1.09-4.04,0-6.04-3.47-6.7-4.61l-.45-.78-.11-.64v-.03c-.16-.42-.4-1.13-.55-2.03-.28-1.69-.41-3.81-.57-6.48-.06-1.07-.14-2.24-.22-3.52-.39-6.46-.64-13.04-.74-19.59-.8.18-1.61.34-2.43.47-2.3.33-4.57.5-6.84.5-6.74,0-13.76-1.42-20.95-4.23.22.83.4,1.68.54,2.54.41,2.47.48,5.27.21,8.54-.81,10.74-4.12,19.66-9.82,26.49-5.78,6.93-11.94,10.98-18.32,12.03-1.47.24-2.97.37-4.44.37-1.81,0-3.62-.18-5.38-.55l-.41-.08-.39-.15c-9.61-3.74-13.01-10.14-14.17-14.85-.88-3.53-2-8.2-2.35-10.29-.66-3.98-.92-7.97-.78-11.93-15.22,2.99-23.75,6.73-28.83,9.16-.35,1.04-.72,2.23-.79,2.71l-.02.14-.02.13c-4.76,27.33-19.9,60.74-40.5,89.38-21.18,29.45-43.54,48.02-61.35,50.97-.68.11-1.33.15-1.9.18-.26.01-.66.04-.8.06-.38.06-.78.09-1.35.09ZM136.48,503.84c-1.79,4.38-4.61,33.19-4.18,53.7l.05,2.64c.16,8.44.25,12.67-.1,15.34-.1.76-.25,1.45-.45,2.09,2.63-.76,5.13-1.82,7.67-3.24,27.71-14.99,58.94-63.52,72.7-112.91.11-.41.22-.81.32-1.19-.4.17-.81.34-1.23.52-1.58.67-3.4,1.45-5.49,2.3-28.7,11.74-63.61,33.08-69.3,40.75ZM109.75,537.75c-3.91,8.48-5.37,16.96-4.12,24.53,1.04,6.26,3.88,11,8.06,13.79-1.57-3.39-2.19-7.14-2.5-9.04-1.12-6.79-1.6-16.44-1.44-29.28ZM287.66,465.33c.1,0,.18,0,.3-.03.39-.06,1.54-.41,3.94-2.24,3.46-3.29,5.71-7.22,6.69-11.66,1.07-4.87,1.31-8.89.75-12.31-.18-1.11-.3-1.84-.58-2.64-1.28-3.82-3.23-4.54-5.16-4.77l-.47-.05-.1-.03c-.25-.01-.58-.04-.98-.09-.72-.07-1.42-.11-2.09-.11-.26,0-.49,0-.71.01-.26.8-.61,1.96-1.06,3.64l-.42,1.36c-2.36,9.64-3.12,17.67-2.2,23.22.21,1.25.55,2.35.95,3.62.54,1.43.98,1.93,1.12,2.07h0Z"/>
          <path class="cls-8" d="M713.92,399.68c-4.91,0-9.85-.86-14.7-2.56-19.5-6.8-30.69-28.38-30.69-59.19,0-10.45,1.29-21.88,3.84-33.96.18-.97.38-1.88.58-2.75-3.89,2.03-9.65,5.32-16.58,9.27-2.18,1.24-4.54,2.59-7.08,4.04-11.25,6.33-18.84,9.15-24.63,9.15-6.21,0-10.82-3.22-12.98-9.07l-.31-.84v-.22c-.11-.4-.21-.9-.21-1.5,0-5.07,4.77-9.8,16.47-16.33,9.44-5.27,22.94-11.38,40.14-18.15,6.57-2.64,10.2-4.11,11.92-5.82,1.55-1.55,2.49-4.2,4.65-10.6,9.48-27.5,31.6-68.45,48.98-90.12-.54.18-1.09.37-1.63.55-49.3,16.77-95.68,40.7-112.78,58.21-4.64,4.87-8.23,7.72-12.69,7.72-2.09,0-4.11-.59-6.35-1.87-5.9-3.17-7.14-7.51-7.14-10.59,0-11.06,16.65-24.99,49.5-41.39,30.57-15.27,69.99-29.65,108.15-39.47,41.85-10.76,83-16.93,112.89-16.93s42.28,5.43,42.28,16.6c0,.78,0,1.94-.4,3.25-1.18,4.4-5.09,7.34-9.78,7.34s-8.46-2.71-9.99-6.96c-.98-.53-5.02-2.16-17.56-2.16-22.95,0-59.39,5.31-92.85,13.53-2.38.61-4.47,1.16-6.3,1.64.95,1.68,1.2,3.47,1.2,4.9,0,5.51-4.01,13.33-13.39,26.15-15.93,22.4-34.75,54.16-41.9,68.53,34.69-11.87,68.19-20.15,81.57-20.15,9,0,9.97,4.8,9.97,6.86v.82l-.15.6c-1.34,5.35-6.81,6.1-10.8,6.64-15.18,1.97-57.88,16.58-87.9,30.06-7.08,3.27-15.69,30.8-15.69,60.06,0,11.7,1.6,21.54,4.5,27.7,3.77,7.89,8.96,11.42,16.81,11.42,18.66,0,52.25-20.67,108.89-67.02,31.63-26.04,47.2-38.08,56.31-43.51,4.46-6.23,9.65-10.93,15.05-13.64,3.94-1.97,8.44-3.01,13.01-3.01,11.72,0,21.02,6.26,21.75,14.59.13.83.26,1.27.34,1.46,4.98,2.37,5.74,7.3,6.88,14.7l.02.14c1.36,10.9,2.93,12.62,6.08,15.19l.18.15c1.05.95,2.53,1.41,4.53,1.41,6.33,0,18.29-6.07,32.86-23.11,2.15-2.54,4.17-4.71,6.01-6.47l.05-.76c1.05-16.23,3.39-32.32,6.95-47.8.48-2.21,1-4.37,1.54-6.46-13.07,2.11-24.46,4.61-34.61,7.61-1.37.42-2.64.81-3.77,1.16-2.78.86-4.79,1.49-6.29,1.82l-.23.05s-1.07.14-1.45.19c-1.23.16-2.2.29-3.13.29-.81,0-1.96,0-3.18-.43-1.76-.48-3.55-1.59-5.31-3.3-1.95-1.56-4.38-4.03-4.38-7.9,0-6.82,7.62-11.29,26.29-15.45,12.92-2.67,27.32-4.63,42.91-5.87,1.66-4.26,3.21-7.9,4.83-11.28l.06-.12c6.2-12.15,13.14-18.05,21.23-18.05,3.49,0,12.67,0,13.81,6.5.33,1.39.51,2.73.51,3.88,0,3.88-1.75,9.72-5.21,17.39,2.54-.03,5.02-.03,7.46-.03,8.58,0,16.46.21,24.1.63,17.56,1.1,28.61,3.52,33.79,7.41l.28.21.25.25c1.65,1.65,3.54,3.91,3.54,6.85,0,.66-.23,6.45-8.31,6.45-1.82,0-4.21-.33-8.23-1.13-8.31-1.58-18.79-2.39-31.13-2.39-8.91,0-18.65.4-29.75,1.22l-.21.03c-5.86,15.48-10.65,31.3-14.26,47.07-3.77,16.45-5.67,31.05-5.67,43.42,0,3.28.19,6.16.39,9.2,1.94,12.82,4.94,16.25,6.42,16.25,2.6,0,13.17-4.15,39.85-57.51l.06-.12.07-.12c1.11-1.94,2.4-3.41,3.85-4.37,1.41-.94,2.98-1.46,4.43-1.46,1.15,0,2.84.32,4.46,1.79,1.69,1.34,2.61,3.41,2.61,5.91v1.7l-.45.98c-21.68,47.79-40.11,70.05-57.99,70.05-4.1,0-8.16-1.33-12.09-3.95-6.68-4.62-10.87-12.59-12.53-23.72-1.09-7.31-1.79-14.07-2.12-20.46-11.73,12.29-25.86,19.54-38.92,19.54s-23.18-7.03-28.21-19.41c-14.45,18.67-24.55,26.66-33.72,26.66-3.76,0-7.36-1.32-10.42-3.82-3-2.44-6.6-7.33-6.6-16.71,0-1.46.09-2.96.26-4.51-9.72,7.3-21.13,16.29-36.45,28.7-63.28,51.32-92.61,68.64-116.24,68.64ZM909.21,280.28c-6.84,1.16-16.31,11.17-19.8,23.77.16-.14.31-.28.48-.43,7.57-7.26,15.66-17.67,19.33-23.34Z"/>
        </g>
        <path class="cls-1" d="M448,404.82c-.07-.41-.31-.58-.37-.99-.37-.99-.85-1.33-1.46-1.23-1.23.2-2.63,3.16-4.54,9.36-8.1,24.64-15.84,37.47-22.79,38.62l-.41.07c-5.35.68-8.85-5.25-10.95-17.92-.78-4.7-1.49-10.25-1.75-16.93-.17-3.54-.47-6.64-.91-9.3-1.39-8.38-4.14-12.33-8.43-11.62-.2.03-2.01.54-5.01,1.46-3.17,1.15-9.48,11.23-19.14,30.25-1.4,2.96-2.39,4.59-2.8,4.66-.2.03-.24-.17-.27-.38-.17-1.02.14-2.96.65-6.2.68-3.47.82-6.43.45-8.68-.68-4.09-3.26-5.76-7.76-5.01-3.88.64-6.23,2.92-7.09,6.63-2.46,4.19-6.24,6.7-11.14,7.51-.82.14-1.67.07-2.49.2-7.05.54-14.81-1.96-23.42-7.04-6.57-4.16-11.98-6.41-16.2-6.55-.85-.07-1.67.07-2.49.2-3.47.57-6.75,2.38-9.98,5.64-1.98,2.01-3.88,3.16-5.93,3.5-.41.07-1.02.17-1.46.03l-1.43.24c-5.14.85-8.59,4.78-10.33,11.95-1.7.17-3.73.46-6.03.84-6.13,1.02-14.03,2.74-21.02,4.95-5.38,1.73-8.38,2.65-10.9,3.9l2.81-17.26c4.45-25.09,4.82-46.99,1.77-65.38-7.61-45.98-37.18-68.59-79.89-61.52-17.78,2.94-37.84,11.09-59.52,24.76-40.48,25.6-89,86.33-86.33,102.47.51,3.06,2.86,4.57,7.56,3.79l.2-.03c5.69-1.15,6.06-1.42,15.27-16.81,37.94-63.81,84.39-99,122.4-105.29,34.94-5.78,62.85,13.11,70.15,57.25,2,12.06,2.42,26.05,1.08,42.02-2,22.17-5.93,35.21-6.65,38.47-1.06,1.22-1.88,1.36-19.96,8.76-24.08,9.24-37.24,16.03-63.1,33.54-3.44,2.04-6.1,3.74-6.51,3.81-.03-.2,1.51-9.91,3.39-21.35,6.82-41.23,15.65-77.96,28.05-114.66,3.38-10.01,4.82-15.29,4.28-18.55-.44-2.66-2.55-3.99-6.29-5.05-2.86-.78-5.24-1.23-7.49-.86-8.38,1.39-13.36,13.13-20.14,44.48-6.95,31.59-17.31,107.21-17.23,125.47.03,3.98-1.23,6.5-6.66,13.07-15.21,18.47-21.02,37.91-18.58,52.62,2.33,14.1,12.4,24.19,29.53,24.92,4.02.17,7.63.42,8.24.31.82-.13,1.87-.1,2.69-.24,34.54-5.72,87.84-79.42,97.74-136.27.17-1.5,1.47-5.07,1.78-5.75,5.25-2.55,15.91-7.88,37.57-11.47.28-.05.55-.09.82-.14-.86,5.54-.86,11.32.12,17.2.24,1.43,1.02,4.87,2.27,9.91,1.29,5.24,5.06,9.03,11.12,11.38,2.83.58,5.55.55,8,.15,5.11-.85,10.22-4.21,15.3-10.3,5.08-6.09,7.95-14.12,8.68-23.69.21-2.55.21-5.07-.16-7.32-.98-5.93-4.07-10.66-9.28-14.21-1.19-.85-2.14-1.53-2.65-2.08-.48-.34-.51-.55-.51-.55q-.03-.2.17-.24c.2-.03,1.53.38,3.61,1.5,2.08,1.13,4.39,2.42,6.94,3.89,11.74,6.24,22.84,8.61,33.09,7.12,3.27-.54,6.06-1.42,8.41-2.44-.1,1.91-.14,4.22-.18,6.54.09,6.91.36,13.59.73,19.61.3,4.36.4,7.49.74,9.54.14.82.44,1.4.51,1.81.88,1.53,1.63,2.25,2.65,2.08,2.66-.44,5.76-5.78,9.72-16.09,3.65-9.63,7.82-18.72,12.15-26.79s7.98-13.92,11.15-17.59c1.4-1.7,2.52-2.52,3.34-2.65.82-.13,1.12.44,1.29,1.47l.17,1.02c.09,10.69.73,19.62,1.95,26.97,1.22,7.36,2.98,12.94,5.33,16.96,3.16,5.14,7.07,7.23,11.78,6.45,2.66-.44,5.79-1.8,8.96-4.21,3.14-2.62,6.51-7.59,10.57-14.77,3.85-7.15,7.1-14.19,9.73-21.14,2.15-6.03,3.11-10.38,2.7-12.84ZM216.99,462.8c-14.22,51.06-45.98,100.2-75.08,115.94-4.8,2.68-9.2,4.04-13.49,4.75-14.92,2.47-25.43-6.5-27.73-20.39-1.73-10.42.94-23.46,9.68-36.66,2.69-4.01,3.89-5.68,4.5-5.79.2-.03.24.17.31.58.03.21.1.61,0,1.26-.84,20.3-.55,34.73.94,43.73,1.42,8.58,3.94,12.36,7.62,11.76l1.23-.2c2.86-.47,2.69-1.5,2.34-20.12-.42-20.3,2.41-52.68,4.93-56.45,6.11-8.78,42.36-30.74,71.66-42.73,6.88-2.82,10.76-4.72,13.01-5.09,1.23-.2,1.91.1,2.04.92.24,1.43-.79,4.12-1.95,8.51ZM303.49,434.84c.41,1.19.58,2.21.78,3.44.68,4.09.4,8.75-.8,14.2s-3.96,10.31-8.33,14.4c-2.42,1.87-4.53,3.06-6.37,3.36-3.27.54-5.45-1.2-6.97-5.35-.44-1.4-.88-2.79-1.15-4.43-1.02-6.13-.32-14.64,2.31-25.37l.41-1.33c.65-2.42,1.2-4.19,1.64-5.31.44-1.12,1.4-1.7,2.42-1.87s2.9-.27,5.24-.03c.65.1,1.06.04,1.5.17,4.5.51,7.66,3.14,9.32,8.11Z"/>
        <path class="cls-1" d="M1097.75,208.47c-4.14-3.11-14.5-5.39-31.07-6.42-7.46-.41-15.33-.62-23.82-.62-4.97,0-9.94,0-15.33.21l2.07-4.56c4.14-8.7,6.01-14.71,6.01-18.02,0-.21,0-1.24-.41-2.9-.21-1.66-3.31-2.49-8.91-2.49-6.01,0-11.6,5.18-16.78,15.33-2.07,4.35-3.94,8.91-5.8,13.88-17.19,1.24-32.31,3.31-45.36,6.01-14.91,3.32-22.37,6.84-22.37,10.56,0,1.45.83,2.69,2.69,4.14,1.24,1.24,2.49,2.07,3.52,2.28.41.21,1.04.21,1.66.21.83,0,2.07-.21,3.73-.41,1.86-.41,4.97-1.45,9.74-2.9,12.64-3.73,26.93-6.63,42.88-8.91-1.24,4.35-2.49,8.91-3.52,13.67-3.52,15.33-5.8,31.07-6.84,47.02-.06.93-.12,1.84-.18,2.76-1.92,1.68-4.31,4.13-7.07,7.39-13.46,15.74-26.93,24.86-36.66,24.86-3.11,0-5.8-.83-7.87-2.69-4.56-3.73-6.42-6.84-7.87-18.44-1.24-8.08-1.86-9.94-4.14-10.98-1.86-.83-2.69-2.49-3.11-5.39-.41-6.01-8.29-10.15-16.78-10.15-3.73,0-7.46.83-10.77,2.49-5.22,2.61-9.96,7.31-13.82,12.93-8.96,5.13-25.11,17.69-56.61,43.62-56.96,46.6-91.35,68.15-112.06,68.15-9.94,0-16.78-4.76-21.34-14.29-3.31-7.04-4.97-17.81-4.97-29.83,0-27.13,7.87-59.65,18.64-64.63,30.45-13.67,73.32-28.38,89.27-30.45,4.56-.62,6.21-1.24,6.63-2.9v-.21c0-1.24-1.86-1.86-4.97-1.86-12.43,0-45.57,8.08-80.57,20.09-3.73,1.24-6.63,2.07-8.08,2.07-.62,0-.83-.21-.83-.41,0-5.8,26.93-51.58,45.78-78.09,8.49-11.6,12.43-19.06,12.43-23.2,0-3.73-2.9-5.18-8.7-5.18-1.66,0-2.49,0-2.49-.41s5.59-2.07,20.09-5.8c35.42-8.7,71.67-13.67,94.04-13.67,12.84,0,21.34,1.66,22.16,5.18.83,2.69,3.11,3.94,5.39,3.94s4.35-1.24,4.97-3.73c.21-.62.21-1.24.21-1.86,0-7.87-14.29-11.6-37.28-11.6-27.76,0-68.15,5.59-111.64,16.78-80.57,20.71-153.9,58.2-153.9,76.02,0,2.49,1.45,4.56,4.56,6.21,1.45.83,2.69,1.24,3.94,1.24,2.49,0,4.97-1.86,9.11-6.21,17.81-18.23,64.21-42.26,114.75-59.45,13.46-4.56,19.68-6.63,21.13-6.63q.41,0,.41.21c0,.21-.83.83-2.49,1.86-14.91,9.11-47.43,63.8-60.07,100.46q-4.56,13.46-19.47,19.47c-34.18,13.46-53.44,24.24-53.44,29.83,0,.21.21.62.21.83,1.45,3.94,4.14,5.8,8.29,5.8,4.97,0,12.22-2.9,22.16-8.49,19.68-11.19,27.96-16.16,30.86-16.16,1.04,0,1.45.62,1.45,1.66,0,1.86-1.04,4.97-1.86,9.32-2.49,11.81-3.73,22.78-3.73,32.93,0,28.17,9.53,48.26,27.34,54.48,4.14,1.45,8.49,2.28,13.05,2.28,22.78,0,52.82-18.64,113.09-67.53,20.39-16.51,34.88-27.82,47.83-37.03-2.23,5.79-3.5,11.67-3.5,16.74,0,5.59,1.45,10.15,4.76,12.84,2.28,1.86,4.76,2.69,7.25,2.69,7.46,0,16.78-7.87,30.03-25.06,2.9-3.73,4.35-5.39,5.18-5.39s1.45,1.45,2.28,4.56c4.14,12.64,13.46,18.64,24.44,18.64,14.14,0,31.14-9.96,43.84-28.57-.08,1.97-.14,3.91-.14,5.79,0,8.91.83,18.23,2.28,27.96,1.45,9.73,4.97,16.57,10.36,20.3,3.11,2.07,6.21,3.11,9.32,3.11,15.33,0,33.14-22.37,53.44-67.11v-.62c0-.83-.21-1.66-.83-2.07-.41-.41-.83-.62-1.24-.62s-1.04.21-1.66.62c-.62.41-1.45,1.24-2.28,2.69-20.09,40.18-34.8,60.28-44.33,60.28-5.59,0-9.32-6.84-11.39-20.71-.21-3.11-.41-6.21-.41-9.73,0-12.43,1.86-27.34,5.8-44.53,3.94-17.19,9.11-33.97,15.53-50.54l3.31-.41c11.19-.83,21.13-1.24,30.24-1.24,12.64,0,23.41.83,32.11,2.49,3.11.62,5.59,1.04,7.25,1.04,2.28,0,3.31-.62,3.31-1.45s-.62-1.86-2.07-3.31ZM893.3,307.27c-4.56,4.14-7.25,6.21-8.7,6.21-1.04,0-1.45-.83-1.45-2.48,0-1.24.21-3.31.83-5.8,3.52-16.36,16.36-30.03,26.51-30.03,1.86,0,3.73.62,5.39,1.66.21,0,.21.21.21.62,0,3.31-12.84,20.3-22.78,29.83Z"/>
      </g>
    </g>
  </g>
</svg>